PathFileType	4	(X/Y/Z)	C:\Users\italobelli\Desktop\GitHub\PTbot_officialCBL\Personal_Results\FLX22_noisy1.trc
DataRate	CameraRate	NumFrames	NumMarkers	Units	OrigDataRate	OrigDataStartFrame	OrigNumFrames
106.125000	106.125000	21	9	m	106.125000	744	850
Frame#	Time		gu		centelbow		EpL		centpxt8		centijc7		ij		ts		aa		ai
			X1	Y1	Z1	X2	Y2	Z2	X3	Y3	Z3	X4	Y4	Z4	X5	Y5	Z5	X6	Y6	Z6	X7	Y7	Z7	X8	Y8	Z8	X9	Y9	Z9

744	7.0012	-0.077572	-0.016808	0.16074	-0.15372	-0.25815	0.20054	-0.13365	-0.25584	0.22566	-0.046816	-0.15316	-0.008669	-0.046816	0.031938	-0.008669	0	0	0	-0.13432	0.031693	0.052914	-0.10263	0.020259	0.16732	-0.15649	-0.079636	0.053359
745	7.0106	-0.077599	-0.016809	0.16076	-0.15363	-0.25808	0.20047	-0.1336	-0.25576	0.22562	-0.046816	-0.15316	-0.008669	-0.046816	0.031938	-0.008669	0	0	0	-0.13431	0.031688	0.052918	-0.10267	0.020275	0.16734	-0.15648	-0.079637	0.053351
746	7.02	-0.077625	-0.016808	0.16078	-0.15353	-0.25801	0.20042	-0.13356	-0.25568	0.2256	-0.046816	-0.15316	-0.008669	-0.046816	0.031938	-0.008669	0	0	0	-0.13431	0.031682	0.052922	-0.10272	0.020292	0.16737	-0.15647	-0.079641	0.053347
747	7.0294	-0.077653	-0.016807	0.16079	-0.15344	-0.25793	0.20038	-0.13352	-0.2556	0.22559	-0.046816	-0.15316	-0.008669	-0.046816	0.031938	-0.008669	0	0	0	-0.13431	0.031675	0.052927	-0.10277	0.020309	0.16739	-0.15646	-0.079645	0.053346
748	7.0389	-0.07768	-0.016806	0.16081	-0.15334	-0.25786	0.20036	-0.13347	-0.25551	0.22559	-0.046816	-0.15316	-0.008669	-0.046816	0.031938	-0.008669	0	0	0	-0.1343	0.031667	0.052932	-0.10282	0.020326	0.16741	-0.15645	-0.079651	0.053349
749	7.0483	-0.077708	-0.016803	0.16083	-0.15324	-0.25778	0.20034	-0.13343	-0.25542	0.2256	-0.046816	-0.15316	-0.008669	-0.046816	0.031938	-0.008669	0	0	0	-0.1343	0.031657	0.052936	-0.10287	0.020344	0.16743	-0.15644	-0.079659	0.053355
750	7.0577	-0.077736	-0.0168	0.16085	-0.15314	-0.2577	0.20034	-0.13338	-0.25533	0.22562	-0.046816	-0.15316	-0.008669	-0.046816	0.031938	-0.008669	0	0	0	-0.1343	0.031646	0.052941	-0.10292	0.020362	0.16746	-0.15643	-0.079668	0.053363
751	7.0671	-0.077764	-0.016796	0.16087	-0.15304	-0.25762	0.20035	-0.13333	-0.25524	0.22566	-0.046816	-0.15316	-0.008669	-0.046816	0.031938	-0.008669	0	0	0	-0.13429	0.031634	0.052946	-0.10297	0.020381	0.16748	-0.15642	-0.079679	0.053375
752	7.0766	-0.077792	-0.016792	0.16089	-0.15293	-0.25754	0.20037	-0.13328	-0.25515	0.22571	-0.046816	-0.15316	-0.008669	-0.046816	0.031938	-0.008669	0	0	0	-0.13429	0.03162	0.052951	-0.10302	0.0204	0.1675	-0.15641	-0.079691	0.053389
753	7.086	-0.077821	-0.016787	0.16092	-0.15282	-0.25746	0.20039	-0.13322	-0.25505	0.22576	-0.046816	-0.15316	-0.008669	-0.046816	0.031938	-0.008669	0	0	0	-0.13429	0.031606	0.052955	-0.10308	0.020419	0.16753	-0.15641	-0.079704	0.053406
754	7.0954	-0.07785	-0.016782	0.16094	-0.15271	-0.25737	0.20043	-0.13317	-0.25495	0.22583	-0.046816	-0.15316	-0.008669	-0.046816	0.031938	-0.008669	0	0	0	-0.13428	0.031591	0.05296	-0.10313	0.020438	0.16755	-0.1564	-0.079719	0.053426
755	7.1048	-0.077879	-0.016776	0.16096	-0.1526	-0.25729	0.20048	-0.13311	-0.25485	0.22591	-0.046816	-0.15316	-0.008669	-0.046816	0.031938	-0.008669	0	0	0	-0.13428	0.031574	0.052965	-0.10319	0.020458	0.16757	-0.15639	-0.079734	0.053447
756	7.1143	-0.077908	-0.01677	0.16098	-0.15249	-0.2572	0.20054	-0.13305	-0.25475	0.22599	-0.046816	-0.15316	-0.008669	-0.046816	0.031938	-0.008669	0	0	0	-0.13428	0.031557	0.05297	-0.10324	0.020478	0.1676	-0.15638	-0.079751	0.053471
757	7.1237	-0.077938	-0.016763	0.16101	-0.15237	-0.25712	0.2006	-0.13299	-0.25465	0.22609	-0.046816	-0.15316	-0.008669	-0.046816	0.031938	-0.008669	0	0	0	-0.13428	0.031539	0.052975	-0.1033	0.020497	0.16762	-0.15638	-0.079769	0.053498
758	7.1331	-0.077967	-0.016756	0.16103	-0.15226	-0.25703	0.20067	-0.13293	-0.25455	0.22619	-0.046816	-0.15316	-0.008669	-0.046816	0.031938	-0.008669	0	0	0	-0.13428	0.03152	0.05298	-0.10336	0.020518	0.16765	-0.15637	-0.079787	0.053526
759	7.1425	-0.077997	-0.016749	0.16105	-0.15214	-0.25694	0.20075	-0.13286	-0.25444	0.2263	-0.046816	-0.15316	-0.008669	-0.046816	0.031938	-0.008669	0	0	0	-0.13428	0.031501	0.052985	-0.10341	0.020538	0.16767	-0.15636	-0.079807	0.053556
760	7.1519	-0.078026	-0.016742	0.16108	-0.15202	-0.25686	0.20084	-0.1328	-0.25434	0.22641	-0.046816	-0.15316	-0.008669	-0.046816	0.031938	-0.008669	0	0	0	-0.13428	0.031481	0.05299	-0.10347	0.020558	0.1677	-0.15636	-0.079828	0.053587
761	7.1614	-0.078056	-0.016734	0.1611	-0.15189	-0.25677	0.20093	-0.13273	-0.25423	0.22653	-0.046816	-0.15316	-0.008669	-0.046816	0.031938	-0.008669	0	0	0	-0.13427	0.03146	0.052995	-0.10353	0.020579	0.16772	-0.15635	-0.079849	0.053621
762	7.1708	-0.078085	-0.016727	0.16113	-0.15177	-0.25668	0.20103	-0.13266	-0.25413	0.22666	-0.046816	-0.15316	-0.008669	-0.046816	0.031938	-0.008669	0	0	0	-0.13427	0.031438	0.053001	-0.10359	0.020599	0.16775	-0.15634	-0.079871	0.053655
763	7.1802	-0.078115	-0.016719	0.16115	-0.15164	-0.25659	0.20113	-0.13258	-0.25402	0.22679	-0.046816	-0.15316	-0.008669	-0.046816	0.031938	-0.008669	0	0	0	-0.13427	0.031416	0.053006	-0.10364	0.02062	0.16777	-0.15634	-0.079894	0.053691
764	7.1896	-0.078144	-0.016711	0.16117	-0.15151	-0.2565	0.20123	-0.13251	-0.25391	0.22693	-0.046816	-0.15316	-0.008669	-0.046816	0.031938	-0.008669	0	0	0	-0.13427	0.031394	0.053011	-0.1037	0.02064	0.1678	-0.15633	-0.079917	0.053729
